<?xml version="1.0" encoding="utf-8"?>
<!-- Generator: Adobe Illustrator 16.0.0, SVG Export Plug-In . SVG Version: 6.00 Build 0)  -->
<!DOCTYPE svg PUBLIC "-//W3C//DTD SVG 1.1//EN" "http://www.w3.org/Graphics/SVG/1.1/DTD/svg11.dtd">
<svg version="1.1" id="Layer_1" xmlns="http://www.w3.org/2000/svg" xmlns:xlink="http://www.w3.org/1999/xlink" x="0px" y="0px"
	 width="260px" height="40.754px" viewBox="0 0 260 40.754" enable-background="new 0 0 260 40.754" xml:space="preserve">
<g>
	<path fill="#70142C" d="M1.07,39.944l2.934-15.7c0.747-3.992,1.061-8.416,1.327-10.682l6.74-0.013
		c-0.157,1.781-0.315,3.559-0.474,5.394l0.162-0.001c1.827-3.508,4.788-5.996,8.401-6.003c0.484,0,0.971-0.001,1.456,0.051
		l-1.495,7.555c-0.376-0.054-0.809-0.054-1.24-0.054c-4.96,0.011-7.271,4.438-8.23,9.618l-1.815,9.817L1.07,39.944z"/>
	<path fill="#70142C" d="M41.459,38.349c-3.07,1.569-6.898,2.063-9.811,2.07c-7.55,0.014-11.441-4.238-11.456-11.088
		c-0.018-8.034,5.791-16.405,15.335-16.425c5.339-0.011,9.174,2.948,9.186,7.855c0.014,6.741-6.508,9.182-17.078,8.931
		c0.001,0.758,0.274,1.945,0.814,2.697c1.028,1.348,2.808,2.042,5.074,2.039c2.857-0.006,5.284-0.659,7.385-1.688L41.459,38.349z
		 M34.569,18.57c-3.613,0.009-5.656,2.979-6.19,5.46c6.04,0.042,9.059-0.828,9.055-3.2C37.43,19.481,36.349,18.567,34.569,18.57"/>
	<path fill="#70142C" d="M45.722,39.85l3.787-20.5l-3.398,0.006l1.121-5.882l3.398-0.006l0.267-1.403
		c0.532-3.075,1.766-6.367,4.403-8.583c2.1-1.839,4.903-2.546,7.492-2.551c1.887-0.003,3.291,0.264,4.154,0.639L65.61,7.776
		c-0.703-0.323-1.513-0.482-2.537-0.481c-2.481,0.005-4.04,2.219-4.518,4.863l-0.269,1.295l5.232-0.011l-1.122,5.881l-5.176,0.011
		l-3.788,20.501L45.722,39.85z"/>
	<path fill="#70142C" d="M102.059,2.652c3.086-0.504,7.11-0.787,11.355-0.796c7.057-0.015,11.635,1.244,15.225,3.938
		c3.865,2.859,6.303,7.431,6.314,13.991c0.016,7.112-2.567,12.023-6.143,15.065c-3.908,3.262-9.86,4.818-17.138,4.832
		c-4.355,0.011-7.443-0.262-9.539-0.53L102.059,2.652z M110.557,32.958c0.716,0.164,1.874,0.163,2.922,0.16
		c7.608,0.04,12.562-4.163,12.542-13.036c0.041-7.72-4.49-11.791-11.712-11.776c-1.875,0.002-3.087,0.171-3.803,0.337
		L110.557,32.958z"/>
	<polygon fill="#70142C" points="160.931,23.481 147.257,23.509 147.275,32.332 162.547,32.299 162.563,39.192 138.854,39.242 
		138.777,2.079 161.714,2.031 161.729,8.924 147.229,8.954 147.243,16.673 160.916,16.645 	"/>
	<path fill="#70142C" d="M166.566,2.518c2.591-0.446,6.228-0.785,11.355-0.794c5.185-0.011,8.881,0.975,11.364,2.955
		c2.374,1.868,3.98,4.953,3.987,8.592c0.008,3.639-1.198,6.728-3.397,8.828c-2.863,2.708-7.106,3.93-12.068,3.938
		c-1.104,0.002-2.096-0.05-2.866-0.157l0.025,13.287l-8.325,0.018L166.566,2.518z M174.927,19.374
		c0.719,0.162,1.6,0.217,2.813,0.213c4.468-0.009,7.219-2.274,7.209-6.08c-0.007-3.418-2.38-5.453-6.571-5.443
		c-1.71,0.002-2.868,0.17-3.472,0.337L174.927,19.374z"/>
	<path fill="#70142C" d="M231.001,20.083c0.026,12.185-7.348,19.587-18.211,19.611c-11.024,0.021-17.494-8.29-17.517-18.876
		c-0.022-11.137,7.075-19.479,18.045-19.5C224.731,1.295,230.978,9.828,231.001,20.083 M204.152,20.637
		c0.014,7.277,3.442,12.396,9.065,12.385c5.68-0.012,8.92-5.421,8.905-12.644c-0.011-6.672-3.222-12.399-9.011-12.388
		C207.434,8.003,204.137,13.413,204.152,20.637"/>
	<polygon fill="#70142C" points="240.461,8.927 230.48,8.947 230.468,1.89 259.026,1.831 259.042,8.889 248.897,8.91 
		248.959,39.013 240.523,39.031 	"/>
	<path fill="#949292" d="M65.068,33.034c2.16-0.007,3.717,1.459,3.722,3.574c0.003,2.117-1.547,3.589-3.708,3.594
		c-2.16,0.004-3.717-1.46-3.722-3.577C61.356,34.507,62.909,33.036,65.068,33.034 M94.928,39.883L71.69,39.928l-0.014-6.653
		l23.239-0.045L94.928,39.883z"/>
	<path fill="#949292" d="M80.254,3.672l14.599-0.028l0.014,6.65L82.211,10.32c-2.938,0.006-4.749,1.739-4.742,4.589
		c0.051,3.326,2.56,5.308,5.972,5.299l11.447-0.022l0.013,6.653l-23.237,0.045l-0.013-6.65l4.059-0.008
		c-2.897-1.636-4.284-4.397-4.333-8.025C71.364,7.017,74.813,3.685,80.254,3.672"/>
	<path fill="#949292" d="M11.519,3.485C8.274,3.475,5.633,6.096,5.622,9.342L5.621,9.563l44.493,0.151
		c0.681-2.453,1.755-4.488,3.202-6.087L11.519,3.485z"/>
</g>
</svg>
